<svg xmlns="http://www.w3.org/2000/svg" viewBox="0 0 48 48" fill="currentColor" aria-hidden="true">
  <!-- Background gradient circle -->
  <defs>
    <linearGradient id="bgGradient" x1="0%" y1="0%" x2="100%" y2="100%">
      <stop offset="0%" style="stop-color:#dbeafe;stop-opacity:1" />
      <stop offset="100%" style="stop-color:#bfdbfe;stop-opacity:1" />
    </linearGradient>
    <linearGradient id="walletGradient" x1="0%" y1="0%" x2="100%" y2="100%">
      <stop offset="0%" style="stop-color:#2563eb;stop-opacity:1" />
      <stop offset="100%" style="stop-color:#1d4ed8;stop-opacity:1" />
    </linearGradient>
    <linearGradient id="flapGradient" x1="0%" y1="0%" x2="100%" y2="100%">
      <stop offset="0%" style="stop-color:#1d4ed8;stop-opacity:1" />
      <stop offset="100%" style="stop-color:#1e40af;stop-opacity:1" />
    </linearGradient>
  </defs>
  
  <!-- Background circle with gradient -->
  <circle cx="24" cy="24" r="22" fill="url(#bgGradient)" stroke="#3b82f6" stroke-width="1" opacity="0.8"/>
  
  <!-- Main wallet body with curved corners -->
  <path d="M12 20h24c1.5 0 2.5 1 2.5 2.5v7c0 1.5-1 2.5-2.5 2.5H12c-1.5 0-2.5-1-2.5-2.5v-7c0-1.5 1-2.5 2.5-2.5z" 
        fill="url(#walletGradient)" rx="3"/>
  
  <!-- Wallet flap with curved top -->
  <path d="M10 18h28c1.5 0 2.5 1 2.5 2.5v2H7.5v-2c0-1.5 1-2.5 2.5-2.5z" 
        fill="url(#flapGradient)" rx="3"/>
  
  <!-- Money/coins with subtle shadows -->
  <circle cx="18" cy="26" r="2.5" fill="#fbbf24" opacity="0.9"/>
  <circle cx="24" cy="26" r="2.5" fill="#fbbf24" opacity="0.9"/>
  <circle cx="30" cy="26" r="2.5" fill="#fbbf24" opacity="0.9"/>
  
  <!-- Subtle inner shadows for depth -->
  <circle cx="18" cy="26" r="1.5" fill="#f59e0b" opacity="0.3"/>
  <circle cx="24" cy="26" r="1.5" fill="#f59e0b" opacity="0.3"/>
  <circle cx="30" cy="26" r="1.5" fill="#f59e0b" opacity="0.3"/>
  
  <!-- Decorative curved accent lines -->
  <path d="M8 32q8-2 16-2t16 2" stroke="#60a5fa" stroke-width="1.5" fill="none" opacity="0.6" stroke-linecap="round"/>
  <path d="M8 34q8-1 16-1t16 1" stroke="#93c5fd" stroke-width="1" fill="none" opacity="0.4" stroke-linecap="round"/>
</svg>
